<svg xmlns="http://www.w3.org/2000/svg" width="32" height="32" fill="none" viewBox="0 0 32 32"
    class="no-colorize h-8 w-8 shrink-0 cursor-pointer">
    <g clip-path="url(#clip0_49_446)">
        <path fill="#1d705a" stroke="#1d705a" stroke-width="0.5"
            d="M11.858.25h8.284c2.079 0 3.624 0 4.847.1 1.22.1 2.1.297 2.85.68a7.16 7.16 0 0 1 3.13 3.13c.384.752.58 1.63.68 2.85.1 1.224.101 2.769.101 4.848v8.284c0 2.079 0 3.624-.1 4.847-.1 1.22-.297 2.1-.68 2.85a7.16 7.16 0 0 1-3.13 3.13c-.752.384-1.63.58-2.85.68-1.224.1-2.769.101-4.848.101h-8.284c-2.079 0-3.624 0-4.847-.1-1.22-.1-2.1-.297-2.85-.68a7.16 7.16 0 0 1-3.13-3.13c-.384-.752-.58-1.63-.68-2.85C.25 23.765.25 22.22.25 20.141v-8.284c0-2.079 0-3.624.1-4.847.1-1.22.297-2.1.68-2.85a7.16 7.16 0 0 1 3.13-3.13C4.912.646 5.79.45 7.01.35 8.235.25 9.78.25 11.859.25Z" />
        <path fill="#fff"
            d="M24.13 14.13c-.024-3.666-2.69-6.718-6.716-6.718H7.869v2.434h3.968v12.306H7.869v2.435h9.545c4.024 0 6.742-3.05 6.717-6.717v-3.742zm-2.486 3.744c0 2.282-1.718 4.281-4.23 4.281h-3.092V9.85h3.092c2.512 0 4.23 2.024 4.23 4.281z" />
    </g>
    <defs>
        <clipPath id="clip0_49_446">
            <path fill="#fff" d="M0 0h32v32H0z" />
        </clipPath>
    </defs>
</svg>